<?xml version="1.0" encoding="UTF-8" standalone="no"?>
<svg width="3963px" height="585px" viewBox="0 0 3963 585" version="1.1" xmlns="http://www.w3.org/2000/svg" xmlns:xlink="http://www.w3.org/1999/xlink" xmlns:sketch="http://www.bohemiancoding.com/sketch/ns">
    <!-- Generator: Sketch 3.4.4 (17249) - http://www.bohemiancoding.com/sketch -->
    <title>bounds</title>
    <desc>Created with Sketch.</desc>
    <defs>
        <linearGradient x1="50.0002485%" y1="98.436287%" x2="50.0002443%" y2="1.53526473%" id="linearGradient-1">
            <stop stop-color="#8CC63F" offset="0%"></stop>
            <stop stop-color="#009444" offset="100%"></stop>
        </linearGradient>
        <linearGradient x1="49.9998715%" y1="98.4357568%" x2="49.9998673%" y2="1.53639518%" id="linearGradient-2">
            <stop stop-color="#8CC63F" offset="0%"></stop>
            <stop stop-color="#009444" offset="100%"></stop>
        </linearGradient>
        <linearGradient x1="49.99997%" y1="98.4357568%" x2="49.9999658%" y2="1.53639518%" id="linearGradient-3">
            <stop stop-color="#8CC63F" offset="0%"></stop>
            <stop stop-color="#009444" offset="100%"></stop>
        </linearGradient>
    </defs>
    <g id="Page-1" stroke="none" stroke-width="1" fill="none" fill-rule="evenodd" sketch:type="MSPage">
        <g id="bounds" sketch:type="MSLayerGroup" transform="translate(1981.500000, 292.500000) scale(1, -1) translate(-1981.500000, -292.500000) ">
            <g id="right-group" transform="translate(2105.000000, 138.000000)" fill="#231F20" sketch:type="MSShapeGroup">
                <path d="M1626,0 L1626,310 L1845.4114,310 L1845.4114,276.569948 L1664.29932,276.569948 L1664.29932,177.791403 L1777.00936,177.791403 L1777.00936,144.361351 L1664.29932,144.361351 L1664.29932,33.430052 L1858,33.430052 L1858,0 L1626,0 L1626,0 Z" id="c8"></path>
                <path d="M1477.70419,153.987254 C1477.70419,188.096334 1468.75808,216.293572 1450.88743,238.583958 C1430.45689,263.907593 1402.00719,276.56941 1365.52754,276.56941 L1293.29581,276.56941 L1293.29581,33.43059 L1365.52754,33.43059 C1402.36826,33.43059 1430.82874,45.7581512 1450.88743,70.4082848 C1468.75808,92.3544369 1477.70419,120.21243 1477.70419,153.987254 L1477.70419,153.987254 Z M1255,0 L1255,310 L1363.33952,310 C1410.03174,310 1447.60539,294.299945 1476.06048,262.894847 C1502.68862,233.51524 1516,197.206057 1516,153.987254 C1516,110.429206 1503.42156,74.6239016 1478.25389,46.6062635 C1450.52096,15.5304323 1412.21437,0 1363.33952,0 L1255,0 L1255,0 Z" id="c7"></path>
                <path d="M1145,310 L1145,113.174449 C1145,81.0195882 1133.12409,54.1325996 1109.37227,32.4747135 C1085.62046,10.8362124 1056.94553,0 1023.33131,0 C989.344622,0 960.653505,10.0026576 937.279558,30.0273579 C912.426519,51.336314 900,79.0617037 900,113.174449 L900,310 L938.37538,310 L938.37538,113.174449 C938.37538,91.2015571 946.402415,72.3399565 962.488873,56.594494 C978.559137,40.8490315 998.472877,32.9690309 1022.23009,32.9690309 C1045.25316,32.9690309 1065.06974,40.5970266 1081.69601,55.853018 C1098.32228,71.1090093 1106.64081,90.208076 1106.64081,113.174449 L1106.64081,310 L1145,310 L1145,310 Z" id="c6"></path>
                <path d="M677.640252,276.569948 L677.640252,0 L639.269296,0 L639.269296,276.569948 L528,276.569948 L528,310 L790,310 L790,276.569948 L677.640252,276.569948 L677.640252,276.569948 Z" id="c5"></path>
                <path d="M388,0 L350,0 L350,310 L388,310 L388,0 L388,0 Z" id="c4"></path>
                <path d="M210,35.4610705 L210,0 L0,0 L0,310 L38.4741917,310 L38.4741917,35.4610705 L210,35.4610705 L210,35.4610705 Z" id="c3"></path>
            </g>
            <g id="left-group" sketch:type="MSShapeGroup">
                <g id="c2-(P)" transform="translate(1390.000000, 0.000000)">
                    <path d="M127.23864,584.999872 C56.9726752,584.999872 -2.84217094e-13,528.03527 -2.84217094e-13,457.761884 L-2.84217094e-13,457.761884 L-2.84217094e-13,127.237861 C-2.84217094e-13,56.9694876 56.9726752,-0.00012755102 127.23864,-0.00012755102 L127.23864,-0.00012755102 L457.76136,-0.00012755102 C528.042362,-0.00012755102 585,56.9694876 585,127.237861 L585,127.237861 L585,457.761884 C585,528.03527 528.042362,584.999872 457.76136,584.999872 L457.76136,584.999872 L127.23864,584.999872 L127.23864,584.999872 Z" id="c2-frame-filled" fill="url(#linearGradient-1)"></path>
                    <path d="M373.926321,357.835688 C373.926321,374.04461 367.136194,387.544562 353.575986,398.355499 C340.005755,409.166436 322.36646,414.56941 300.6581,414.56941 L238.579806,414.56941 L238.579806,298.567608 L293.026098,298.567608 C325.242868,298.567608 347.467378,304.47446 359.684594,316.303132 C369.175738,325.412855 373.926321,339.26203 373.926321,357.835688 L373.926321,357.835688 Z M205,138 L205,448 L299.139717,448 C330.67998,448 356.537584,439.463999 376.72255,422.416943 C396.897494,405.364897 407,383.673179 407,357.326821 C407,325.248222 396.897494,301.770479 376.72255,286.923525 C356.537584,272.061605 328.129298,264.62815 291.497693,264.62815 L238.579806,264.62815 L238.579806,138 L205,138 L205,138 Z" id="c2" fill="#231F20"></path>
                </g>
                <g id="c1-(P)" transform="translate(695.000000, 0.000000)">
                    <path d="M127.235808,585 C56.9686389,585 0,528.041386 0,457.759179 L0,457.759179 L0,127.245834 C0,56.9736515 56.9686389,-5.68434189e-14 127.235808,-5.68434189e-14 L127.235808,-5.68434189e-14 L457.769204,-5.68434189e-14 C528.041386,-5.68434189e-14 585,56.9736515 585,127.245834 L585,127.245834 L585,457.759179 C585,528.041386 528.041386,585 457.769204,585 L457.769204,585 L127.235808,585 L127.235808,585 Z" id="c1-frame-filled" fill="url(#linearGradient-2)"></path>
                    <path d="M373.926321,357.835688 C373.926321,374.04461 367.136194,387.544562 353.570975,398.355499 C340.000744,409.156458 322.361449,414.56941 300.6581,414.56941 L238.579806,414.56941 L238.579806,298.567608 L293.026098,298.567608 C325.242868,298.567608 347.467378,304.47446 359.679583,316.293154 C369.175738,325.412855 373.926321,339.252052 373.926321,357.835688 L373.926321,357.835688 Z M205,138 L205,448 L299.134706,448 C330.674969,448 356.532573,439.463999 376.72255,422.421932 C396.892483,405.364897 407,383.658212 407,357.326821 C407,325.238244 396.892483,301.770479 376.72255,286.908558 C356.532573,272.051627 328.129298,264.62815 291.497693,264.62815 L238.579806,264.62815 L238.579806,138 L205,138 L205,138 Z" id="c1" fill="#231F20"></path>
                </g>
                <g id="c0-(A)">
                    <path d="M127.23864,585 C56.9626501,585 0,528.041386 0,457.759179 L0,457.759179 L0,127.245834 C0,56.9736515 56.9626501,-5.68434189e-14 127.23864,-5.68434189e-14 L127.23864,-5.68434189e-14 L457.76136,-5.68434189e-14 C528.027325,-5.68434189e-14 585,56.9736515 585,127.245834 L585,127.245834 L585,457.759179 C585,528.041386 528.027325,585 457.76136,585 L457.76136,585 L127.23864,585 L127.23864,585 Z" id="c0-frame-filled" fill="url(#linearGradient-3)"></path>
                    <path d="M334.499004,296.048215 L293,413.337153 L251.491036,296.048215 L334.499004,296.048215 L334.499004,296.048215 Z M428,138 L390.410359,138.114745 L347.058765,260.587145 L238.941235,260.587145 L195.589641,138.114745 L158,138 L267.726096,448 L318.288845,448 L428,138 L428,138 Z" id="c0" fill="#231F20"></path>
                </g>
            </g>
        </g>
    </g>
</svg>