<?xml version="1.0" encoding="UTF-8" standalone="no"?>
<svg
   xmlns:dc="http://purl.org/dc/elements/1.1/"
   xmlns:cc="http://creativecommons.org/ns#"
   xmlns:rdf="http://www.w3.org/1999/02/22-rdf-syntax-ns#"
   xmlns:svg="http://www.w3.org/2000/svg"
   xmlns="http://www.w3.org/2000/svg"
   viewBox="31 121 999 149"
   height="149"
   width="999"
   xml:space="preserve"
   version="1.1"
   id="svg2"><metadata
     id="metadata8"><rdf:RDF><cc:Work
         rdf:about=""><dc:format>image/svg+xml</dc:format><dc:type
           rdf:resource="http://purl.org/dc/dcmitype/StillImage" /><dc:title></dc:title></cc:Work></rdf:RDF></metadata><defs
     id="defs6"><clipPath
       id="clipPath18"
       clipPathUnits="userSpaceOnUse"><path
         id="path20"
         d="M 0,315 851,315 851,0 0,0 0,315 Z" /></clipPath><clipPath
       id="clipPath38"
       clipPathUnits="userSpaceOnUse"><path
         id="path40"
         d="M 0,315 851,315 851,0 0,0 0,315 Z" /></clipPath><clipPath
       id="clipPath58"
       clipPathUnits="userSpaceOnUse"><path
         id="path60"
         d="m 51.157,216.64 c -14.02,0 -25.384,-11.363 -25.384,-25.384 l 0,0 0,-65.936 c 0,-14.019 11.364,-25.385 25.384,-25.385 l 0,0 65.939,0 c 14.018,0 25.384,11.366 25.384,25.385 l 0,0 0,65.936 c 0,14.021 -11.366,25.384 -25.384,25.384 l 0,0 -65.939,0 z" /></clipPath><linearGradient
       id="linearGradient66"
       spreadMethod="pad"
       gradientTransform="matrix(-4.9e-6,-113.0864,-113.0864,4.9e-6,84.126465,214.81445)"
       gradientUnits="userSpaceOnUse"
       y2="0"
       x2="1"
       y1="0"
       x1="0"><stop
         id="stop68"
         offset="0"
         style="stop-opacity:1;stop-color:#8cc63f" /><stop
         id="stop70"
         offset="1"
         style="stop-opacity:1;stop-color:#009444" /></linearGradient><clipPath
       id="clipPath78"
       clipPathUnits="userSpaceOnUse"><path
         id="path80"
         d="M 0,315 851,315 851,0 0,0 0,315 Z" /></clipPath><clipPath
       id="clipPath90"
       clipPathUnits="userSpaceOnUse"><path
         id="path92"
         d="m 190.412,216.64 c -14.018,0 -25.383,-11.363 -25.383,-25.384 l 0,0 0,-65.936 c 0,-14.019 11.365,-25.385 25.383,-25.385 l 0,0 65.94,0 c 14.019,0 25.382,11.366 25.382,25.385 l 0,0 0,65.936 c 0,14.021 -11.363,25.384 -25.382,25.384 l 0,0 -65.94,0 z" /></clipPath><linearGradient
       id="linearGradient98"
       spreadMethod="pad"
       gradientTransform="matrix(-4.9e-6,-113.0864,-113.0864,4.9e-6,223.38135,214.81445)"
       gradientUnits="userSpaceOnUse"
       y2="0"
       x2="1"
       y1="0"
       x1="0"><stop
         id="stop100"
         offset="0"
         style="stop-opacity:1;stop-color:#8cc63f" /><stop
         id="stop102"
         offset="1"
         style="stop-opacity:1;stop-color:#009444" /></linearGradient><linearGradient
       id="linearGradient118"
       spreadMethod="pad"
       gradientTransform="matrix(-4.9e-6,-113.0864,-113.0864,4.9e-6,363.73779,215.0791)"
       gradientUnits="userSpaceOnUse"
       y2="0"
       x2="1"
       y1="0"
       x1="0"><stop
         id="stop120"
         offset="0"
         style="stop-opacity:1;stop-color:#8cc63f" /><stop
         id="stop122"
         offset="1"
         style="stop-opacity:1;stop-color:#009444" /></linearGradient><clipPath
       id="clipPath130"
       clipPathUnits="userSpaceOnUse"><path
         id="path132"
         d="M 0,315 851,315 851,0 0,0 0,315 Z" /></clipPath></defs><g
     transform="matrix(1.25,0,0,-1.25,0,393.75)"
     id="g10"><path
       id="path12"
       style="fill-opacity:0;fill-rule:nonzero;stroke:none"
       d="M 0,0 851,0 851,315 0,315 0,0 Z" /><g
       id="g14"><g
         clip-path="url(#clipPath18)"
         id="g16"><path
           id="path22"
           style="fill:none;stroke:#231f20;stroke-width:1;stroke-linecap:butt;stroke-linejoin:miter;stroke-miterlimit:10;stroke-dasharray:none;stroke-opacity:1"
           d="m 910.533,-53.453 -928.059,0 0,407.194 928.059,0 0,-407.194 z" /></g></g><g
       transform="translate(485.0352,136.0381)"
       id="g24"><path
         id="path26"
         style="fill:#231f20;fill-opacity:1;fill-rule:nonzero;stroke:none"
         d="m 0,0 0,-7.108 -38.786,0 0,62.138 7.106,0 L -31.68,0 0,0 Z" /></g><path
       id="path28"
       style="fill:#231f20;fill-opacity:1;fill-rule:nonzero;stroke:none"
       d="m 534.274,128.93 -7.105,0 0,62.139 7.105,0 0,-62.139 z" /><g
       transform="translate(602.5049,184.3672)"
       id="g30"><path
         id="path32"
         style="fill:#231f20;fill-opacity:1;fill-rule:nonzero;stroke:none"
         d="m 0,0 0,-55.438 -7.108,0 0,55.438 -20.612,0 0,6.701 48.534,0 L 20.814,0 0,0 Z" /></g><g
       id="g34"><g
         clip-path="url(#clipPath38)"
         id="g36"><g
           transform="translate(689.2129,191.0684)"
           id="g42"><path
             id="path44"
             style="fill:#231f20;fill-opacity:1;fill-rule:nonzero;stroke:none"
             d="m 0,0 0,-40.614 c 0,-6.635 -2.2,-12.183 -6.6,-16.652 -4.4,-4.465 -9.712,-6.701 -15.939,-6.701 -6.296,0 -11.611,2.064 -15.941,6.196 -4.604,4.397 -6.906,10.118 -6.906,17.157 l 0,40.614 7.109,0 0,-40.614 c 0,-4.534 1.487,-8.426 4.467,-11.675 2.977,-3.249 6.666,-4.875 11.067,-4.875 4.265,0 7.936,1.574 11.016,4.722 3.08,3.148 4.621,7.089 4.621,11.828 L -7.106,0 0,0 Z" /></g><g
           transform="translate(752.2637,159.7959)"
           id="g46"><path
             id="path48"
             style="fill:#231f20;fill-opacity:1;fill-rule:nonzero;stroke:none"
             d="m 0,0 c 0,6.837 -1.66,12.489 -4.976,16.957 -3.791,5.076 -9.07,7.614 -15.839,7.614 l -13.403,0 0,-48.736 13.403,0 c 6.836,0 12.117,2.471 15.839,7.412 C -1.66,-12.354 0,-6.77 0,0 m -41.324,-30.866 0,62.138 20.103,0 c 8.664,0 15.636,-3.147 20.916,-9.442 C 4.636,15.941 7.106,8.663 7.106,0 c 0,-8.731 -2.334,-15.908 -7.004,-21.524 -5.146,-6.229 -12.254,-9.342 -21.323,-9.342 l -20.103,0 z" /></g><g
           transform="translate(782.3145,128.9297)"
           id="g50"><path
             id="path52"
             style="fill:#231f20;fill-opacity:1;fill-rule:nonzero;stroke:none"
             d="m 0,0 0,62.139 40.715,0 0,-6.701 -33.608,0 0,-19.8 20.915,0 0,-6.701 -20.915,0 0,-22.236 35.944,0 L 43.051,0 0,0 Z" /></g></g></g><g
       id="g54"><g
         clip-path="url(#clipPath58)"
         id="g56"><g
           id="g62"><g
             id="g64"><path
               id="path72"
               style="fill:url(#linearGradient66);stroke:none"
               d="m 51.157,216.64 c -14.02,0 -25.384,-11.363 -25.384,-25.384 l 0,0 0,-65.936 c 0,-14.019 11.364,-25.385 25.384,-25.385 l 0,0 65.939,0 c 14.018,0 25.384,11.366 25.384,25.385 l 0,0 0,65.936 c 0,14.021 -11.366,25.384 -25.384,25.384 l 0,0 -65.939,0 z" /></g></g></g></g><g
       id="g74"><g
         clip-path="url(#clipPath78)"
         id="g76"><g
           transform="translate(91.5825,160.209)"
           id="g82"><path
             id="path84"
             style="fill:#231f20;fill-opacity:1;fill-rule:nonzero;stroke:none"
             d="M 0,0 -8.333,23.51 -16.668,0 0,0 Z m 18.775,-31.68 -7.548,0.023 -8.705,24.549 -21.71,0 -8.705,-24.549 -7.548,-0.023 22.033,62.138 10.153,0 22.03,-62.138 z" /></g></g></g><g
       id="g86"><g
         clip-path="url(#clipPath90)"
         id="g88"><g
           id="g94"><g
             id="g96"><path
               id="path104"
               style="fill:url(#linearGradient98);stroke:none"
               d="m 190.412,216.64 c -14.018,0 -25.383,-11.363 -25.383,-25.384 l 0,0 0,-65.936 c 0,-14.019 11.365,-25.385 25.383,-25.385 l 0,0 65.94,0 c 14.019,0 25.382,11.366 25.382,25.385 l 0,0 0,65.936 c 0,14.021 -11.363,25.384 -25.382,25.384 l 0,0 -65.94,0 z" /></g></g></g></g><g
       id="g106"><g
         id="g108"><g
           id="g114"><g
             id="g116"><path
               id="path124"
               style="fill:url(#linearGradient118);stroke:none"
               d="m 330.768,216.904 c -14.018,0 -25.384,-11.364 -25.384,-25.383 l 0,0 0,-65.937 c 0,-14.018 11.366,-25.383 25.384,-25.383 l 0,0 65.939,0 c 14.021,0 25.384,11.365 25.384,25.383 l 0,0 0,65.937 c 0,14.019 -11.363,25.383 -25.384,25.383 l 0,0 -65.939,0 z" /></g></g></g></g><g
       id="g126"><g
         clip-path="url(#clipPath130)"
         id="g128"><g
           transform="translate(241.7861,170.8887)"
           id="g134"><path
             id="path136"
             style="fill:#231f20;fill-opacity:1;fill-rule:nonzero;stroke:none"
             d="m 0,0 c 0,3.249 -1.355,5.955 -4.062,8.122 -2.708,2.165 -6.228,3.25 -10.559,3.25 l -12.388,0 0,-23.252 10.865,0 c 6.429,0 10.864,1.184 13.301,3.553 C -0.948,-6.499 0,-3.725 0,0 m -33.71,-44.065 0,62.138 18.785,0 c 6.294,0 11.454,-1.711 15.483,-5.127 C 4.583,9.527 6.6,5.176 6.6,-0.102 c 0,-6.432 -2.017,-11.136 -6.042,-14.115 -4.029,-2.978 -9.697,-4.466 -17.007,-4.466 l -10.56,0 0,-25.382 -6.701,0 z" /></g><g
           transform="translate(382.6274,172.8594)"
           id="g138"><path
             id="path140"
             style="fill:#231f20;fill-opacity:1;fill-rule:nonzero;stroke:none"
             d="m 0,0 c 0,3.249 -1.355,5.955 -4.061,8.122 -2.708,2.167 -6.228,3.25 -10.56,3.25 l -12.388,0 0,-23.252 10.865,0 c 6.429,0 10.864,1.184 13.302,3.555 C -0.948,-6.499 0,-3.723 0,0 m -33.71,-44.065 0,62.138 18.786,0 c 6.294,0 11.454,-1.711 15.482,-5.128 C 4.584,9.527 6.6,5.179 6.6,-0.102 c 0,-6.43 -2.016,-11.136 -6.042,-14.112 -4.028,-2.979 -9.697,-4.469 -17.007,-4.469 l -10.56,0 0,-25.382 -6.701,0 z" /></g></g></g></g></svg>
